<?xml version="1.0" encoding="utf-8"?>
<!-- Generator: Adobe Illustrator 20.1.0, SVG Export Plug-In . SVG Version: 6.00 Build 0)  -->
<svg version="1.1" id="Layer_1" xmlns="http://www.w3.org/2000/svg" xmlns:xlink="http://www.w3.org/1999/xlink" x="0px" y="0px"
	 viewBox="0 0 512 512" style="enable-background:new 0 0 512 512;" xml:space="preserve">
<style type="text/css">
	.st0{fill:#1D1D1B;}
</style>
<g>
	<g>
		<path class="st0" d="M209.2,176.4c-3.6-3.4-7.8-6.1-12.5-8.1c-4.8-1.9-9.9-2.9-15.4-2.9c-5.5,0-10.6,1-15.4,2.9
			c-4.8,2-8.9,4.7-12.5,8.1c-3.6,3.4-6.4,7.4-8.5,12c-2,4.6-3.1,9.5-3.1,14.6c0,5.1,1,10,3.1,14.6c2.1,4.6,4.9,8.6,8.5,12
			c3.6,3.4,7.8,6.1,12.5,8.1c4.8,2,9.9,3,15.4,3c5.4,0,10.6-1,15.4-3c4.8-1.9,8.9-4.6,12.5-8.1c3.6-3.4,6.4-7.4,8.4-12
			c2-4.6,3.1-9.5,3.1-14.6c0-5.1-1.1-10-3.1-14.6C215.6,183.8,212.8,179.8,209.2,176.4z M193.8,215c-3.4,3.4-7.6,5.1-12.6,5.1
			s-9.1-1.7-12.6-5.1c-3.4-3.4-5.1-7.4-5.1-12c0-4.8,1.7-8.8,5.1-12.1c3.4-3.3,7.6-5,12.6-5s9.1,1.6,12.6,5
			c3.4,3.3,5.1,7.4,5.1,12.1C198.9,207.6,197.2,211.6,193.8,215z M335.2,311.8c-6.1,1.7-12.1,2.6-18.1,2.6c-3.9,0-7.8-0.6-11.6-1.8
			c-3.9-1.2-7.4-3.1-10.5-5.6c-3.2-2.6-5.7-5.8-7.7-9.9c-2-4-3-8.9-3-14.7v-51.5c0-5.8,1-10.8,3-14.9c1.9-4.1,4.5-7.4,7.5-10
			c3.1-2.6,6.5-4.4,10.5-5.5c3.9-1.1,7.8-1.7,11.8-1.7c6,0,12.1,0.9,18.4,2.7c6.3,1.8,12.2,5,17.7,9.6l16.9-27.1
			c-6.9-6-15-10.3-24.5-13.1c-9.5-2.7-19.3-4.1-29.5-4.1c-8.4,0-16.6,1.2-24.6,3.6c-8,2.4-15.1,6-21.4,10.8
			C264,186,258.9,192,255.1,199c-3.9,7.1-5.8,15.3-5.8,24.7v66c0,9.6,2,17.9,5.9,25c3.9,7.1,9,13,15.3,17.7
			c6.3,4.7,13.5,8.2,21.5,10.6c8,2.4,16.2,3.6,24.6,3.6c10.4,0,20.3-1.5,29.7-4.6c9.4-3.1,17.3-7.4,23.8-12.8l-16.6-27.1
			C347.4,306.9,341.3,310.1,335.2,311.8z"/>
	</g>
</g>
</svg>
