<svg version="1.1" id="Layer_1" xmlns="http://www.w3.org/2000/svg" xmlns:xlink="http://www.w3.org/1999/xlink" x="0px" y="0px"
	 viewBox="0 0 512 512" style="enable-background:new 0 0 512 512;" xml:space="preserve">
<style type="text/css">
	.st0{fill:#fff;}
</style>
<g>
	<g>
		<path class="st0" d="M208.5,177.3c-3.6-3.4-7.8-6.1-12.5-8.1c-4.8-1.9-9.9-2.9-15.4-2.9c-5.5,0-10.6,1-15.4,2.9
			c-4.8,2-8.9,4.7-12.5,8.1c-3.6,3.4-6.4,7.4-8.5,12c-2,4.6-3.1,9.5-3.1,14.6c0,5.1,1,10,3.1,14.6c2.1,4.6,4.9,8.6,8.5,12
			c3.6,3.4,7.8,6.1,12.5,8.1c4.8,2,9.9,3,15.4,3c5.4,0,10.6-1,15.4-3c4.8-1.9,8.9-4.6,12.5-8.1c3.6-3.4,6.4-7.4,8.4-12
			c2-4.6,3.1-9.5,3.1-14.6c0-5.1-1.1-10-3.1-14.6C214.9,184.7,212.1,180.7,208.5,177.3z M193.2,215.9c-3.4,3.4-7.6,5.1-12.6,5.1
			s-9.1-1.7-12.6-5.1c-3.4-3.4-5.1-7.4-5.1-12c0-4.8,1.7-8.8,5.1-12.1c3.4-3.3,7.6-5,12.6-5s9.1,1.6,12.6,5
			c3.4,3.3,5.1,7.4,5.1,12.1C198.3,208.5,196.6,212.5,193.2,215.9z M370.8,200.8v-31.5H249.2v176.4h35.1v-71.9h74v-31.5h-74v-41.5
			L370.8,200.8L370.8,200.8z"/>
	</g>
</g>
</svg>
