<?xml version="1.0" encoding="utf-8"?>
<!-- Generator: Adobe Illustrator 20.1.0, SVG Export Plug-In . SVG Version: 6.00 Build 0)  -->
<svg version="1.1" id="Layer_1" xmlns="http://www.w3.org/2000/svg" xmlns:xlink="http://www.w3.org/1999/xlink" x="0px" y="0px"
	 viewBox="0 0 512 512" style="enable-background:new 0 0 512 512;" xml:space="preserve">
<style type="text/css">
	.st0{fill:#1D1D1B;}
</style>
<path class="st0" d="M400,64c-5.3,0-10.6,0.4-15.8,1.1C354.3,24.4,307.2,0,256,0s-98.3,24.4-128.2,65.1c-5.2-0.8-10.5-1.1-15.8-1.1
	C50.2,64,0,114.2,0,176s50.2,112,112,112c13.7,0,27.1-2.5,39.7-7.3c21.5,18.8,47.4,31.3,75.1,36.5L192,352l32,32l-32,96l96-96
	l-32-32l11-33c34.5-2.4,67.1-15.5,93.3-38.3c12.6,4.8,26,7.3,39.7,7.3c61.8,0,112-50.2,112-112S461.8,64,400,64z"/>
</svg>
